# Blender 4.5.2 LTS
# www.blender.org
mtllib Lightning_mesh.mtl
o Plane.001
v -1.630151 0.137205 1.630151
v 1.630151 0.137205 1.630151
v -1.630151 0.137205 -1.630151
v 1.630151 0.137205 -1.630151
v -0.524541 0.140180 -0.079194
v 0.520712 0.159296 0.048466
v -1.000000 17.630974 0.000000
v 0.084425 17.630974 -1.680482
v -0.964848 16.756128 -0.093723
v -0.734801 15.885115 -0.630128
v -0.409282 15.118923 -1.292705
v -0.161510 14.277116 -1.582401
v -0.395798 13.392116 -1.170709
v -0.457948 12.333926 -0.526077
v -0.224435 11.328449 -0.242076
v -0.663540 10.502515 0.047666
v -1.496076 9.775408 0.415837
v -1.745092 8.930041 0.485384
v -1.613945 8.027233 0.330225
v -1.250292 7.102732 0.108544
v -0.885928 6.212349 -0.050597
v -0.710701 5.350240 -0.102486
v -0.833243 4.482919 -0.057562
v -1.310242 3.588166 0.053405
v -1.699882 2.689970 0.118261
v -1.597048 1.794510 0.097547
v -1.086760 0.913002 0.013721
v 0.186651 0.988917 0.111431
v -0.052369 1.837252 0.159930
v 0.156064 2.710979 0.115075
v 0.598881 3.695043 -0.021758
v 0.809245 4.651884 -0.159546
v 0.877375 5.452521 -0.267115
v 0.903346 6.223660 -0.369679
v 0.519642 7.148741 -0.375056
v -0.030446 8.114709 -0.246166
v -0.291001 9.036221 -0.179801
v -0.022687 9.850237 -0.427951
v 0.587335 10.270847 -0.765864
v 1.000704 10.827979 -1.123270
v 0.738754 12.330641 -1.785124
v 1.131755 13.481380 -2.526788
v 1.292339 14.370773 -2.896702
v 0.958633 15.201841 -2.750646
v 0.501829 15.981165 -2.288000
v 0.153944 16.769842 -1.783892
v -0.734801 15.885115 -0.630128
v 0.501829 15.981165 -2.288000
v -0.000000 1.502897 -2.307743
v -0.000000 0.158247 -0.962685
v 0.450218 1.502897 -2.263400
v 0.187810 0.158247 -0.944187
v 0.883135 1.502897 -2.132077
v 0.368404 0.158247 -0.889405
v 1.282113 1.502897 -1.918818
v 0.534839 0.158247 -0.800443
v 1.631821 1.502897 -1.631821
v 0.680721 0.158247 -0.680721
v 1.918818 1.502897 -1.282113
v 0.800443 0.158247 -0.534839
v 2.132077 1.502897 -0.883135
v 0.889405 0.158247 -0.368404
v 2.263400 1.502897 -0.450218
v 0.944187 0.158247 -0.187811
v 2.307743 1.502897 0.000000
v 0.962685 0.158247 0.000000
v 2.263400 1.502897 0.450218
v 0.944187 0.158247 0.187811
v 2.132077 1.502897 0.883135
v 0.889405 0.158247 0.368404
v 1.918818 1.502897 1.282113
v 0.800443 0.158247 0.534839
v 1.631821 1.502897 1.631821
v 0.680721 0.158247 0.680721
v 1.282113 1.502897 1.918818
v 0.534839 0.158247 0.800443
v 0.883135 1.502897 2.132077
v 0.368404 0.158247 0.889405
v 0.450218 1.502897 2.263400
v 0.187810 0.158247 0.944187
v -0.000000 1.502897 2.307743
v -0.000000 0.158247 0.962685
v -0.450218 1.502897 2.263400
v -0.187811 0.158247 0.944187
v -0.883135 1.502897 2.132077
v -0.368404 0.158247 0.889405
v -1.282113 1.502897 1.918818
v -0.534839 0.158247 0.800443
v -1.631821 1.502897 1.631821
v -0.680721 0.158247 0.680721
v -1.918818 1.502897 1.282113
v -0.800444 0.158247 0.534839
v -2.132077 1.502897 0.883135
v -0.889405 0.158247 0.368404
v -2.263400 1.502897 0.450218
v -0.944188 0.158247 0.187811
v -2.307743 1.502897 0.000000
v -0.962685 0.158247 0.000000
v -2.263400 1.502897 -0.450218
v -0.944188 0.158247 -0.187811
v -2.132077 1.502897 -0.883135
v -0.889405 0.158247 -0.368404
v -1.918818 1.502897 -1.282113
v -0.800444 0.158247 -0.534839
v -1.631821 1.502897 -1.631821
v -0.680721 0.158247 -0.680721
v -1.282113 1.502897 -1.918818
v -0.534839 0.158247 -0.800443
v -0.883135 1.502897 -2.132077
v -0.368404 0.158247 -0.889405
v -0.450218 1.502897 -2.263400
v -0.187811 0.158247 -0.944187
vn -0.0000 1.0000 -0.0000
vn -0.0898 -0.1460 0.9852
vn 0.8370 -0.0117 0.5471
vn 0.8299 -0.0351 0.5568
vn 0.3828 0.8675 0.3178
vn 0.7457 -0.0300 0.6656
vn 0.6747 0.1209 0.7281
vn 0.6550 0.2589 0.7099
vn 0.6566 0.3447 0.6708
vn 0.6266 0.2117 0.7500
vn 0.5327 -0.0684 0.8435
vn 0.4714 -0.0089 0.8819
vn 0.4155 -0.0039 0.9096
vn 0.3482 -0.0307 0.9369
vn 0.2716 -0.0161 0.9623
vn 0.1874 0.0226 0.9820
vn 0.1071 0.0633 0.9922
vn 0.0535 0.1047 0.9931
vn 0.0250 0.1054 0.9941
vn -0.0023 0.0518 0.9987
vn -0.0314 -0.0301 0.9991
vn -0.0648 -0.1145 0.9913
vn -0.0741 -0.1263 0.9892
vn -0.0350 -0.0418 0.9985
vn 0.0034 0.0654 0.9979
vn 0.0318 0.1111 0.9933
vn 0.0607 0.0972 0.9934
vn 0.1106 0.0612 0.9920
vn 0.1755 0.0279 0.9841
vn 0.2496 -0.0058 0.9683
vn 0.3333 -0.0306 0.9423
vn 0.4213 0.0005 0.9069
vn 0.4962 -0.0753 0.8649
vn 0.5578 -0.0046 0.8300
vn 0.6302 0.2268 0.7426
vn 0.6565 0.3299 0.6783
vn 0.6530 0.2191 0.7249
vn 0.6764 0.1165 0.7273
vn 0.7226 0.0138 0.6911
vn 0.6491 0.5370 0.5389
vn 0.8252 -0.0498 0.5627
vn 0.6783 0.5604 0.4752
vn 0.4399 0.8436 0.3081
vn -0.0000 0.7072 0.7070
vn -0.1379 0.7072 0.6934
vn -0.2706 0.7072 0.6532
vn -0.3928 0.7072 0.5878
vn -0.4999 0.7072 0.4999
vn -0.5878 0.7072 0.3928
vn -0.6532 0.7072 0.2706
vn -0.6934 0.7072 0.1379
vn -0.7070 0.7072 -0.0000
vn -0.6934 0.7072 -0.1379
vn -0.6532 0.7072 -0.2706
vn -0.5878 0.7072 -0.3928
vn -0.4999 0.7072 -0.4999
vn -0.3928 0.7072 -0.5878
vn -0.2706 0.7072 -0.6532
vn -0.1379 0.7072 -0.6934
vn -0.0000 0.7072 -0.7070
vn 0.1379 0.7072 -0.6934
vn 0.2706 0.7072 -0.6532
vn 0.3928 0.7072 -0.5878
vn 0.4999 0.7072 -0.4999
vn 0.5878 0.7072 -0.3928
vn 0.6532 0.7072 -0.2706
vn 0.6934 0.7072 -0.1379
vn 0.7070 0.7072 -0.0000
vn 0.6934 0.7072 0.1379
vn 0.6532 0.7072 0.2706
vn 0.5878 0.7072 0.3928
vn 0.4999 0.7072 0.4999
vn 0.3928 0.7072 0.5878
vn 0.2706 0.7072 0.6532
vn 0.1379 0.7072 0.6934
vt 0.000000 0.000000
vt 1.000000 0.000000
vt 1.000000 1.000000
vt 0.000000 1.000000
vt 0.000000 0.950000
vt 1.000000 0.950000
vt 1.000000 0.050000
vt 0.000000 0.050000
vt 1.000000 0.100000
vt 0.000000 0.100000
vt 1.000000 0.150000
vt 0.000000 0.150000
vt 1.000000 0.200000
vt 0.000000 0.200000
vt 1.000000 0.250000
vt 0.000000 0.250000
vt 1.000000 0.300000
vt 0.000000 0.300000
vt 1.000000 0.350000
vt 0.000000 0.350000
vt 1.000000 0.400000
vt 0.000000 0.400000
vt 1.000000 0.450000
vt 0.000000 0.450000
vt 1.000000 0.500000
vt 0.000000 0.500000
vt 1.000000 0.550000
vt 0.000000 0.550000
vt 1.000000 0.600000
vt 0.000000 0.600000
vt 1.000000 0.650000
vt 0.000000 0.650000
vt 1.000000 0.700000
vt 0.000000 0.700000
vt 1.000000 0.750000
vt 0.000000 0.750000
vt 1.000000 0.800000
vt 0.000000 0.800000
vt 1.000000 0.850000
vt 0.000000 0.850000
vt 1.000000 0.900000
vt 0.000000 0.900000
vt 0.968750 1.000000
vt 0.968750 0.000000
vt 0.937500 1.000000
vt 0.937500 0.000000
vt 0.906250 1.000000
vt 0.906250 0.000000
vt 0.875000 1.000000
vt 0.875000 0.000000
vt 0.843750 1.000000
vt 0.843750 0.000000
vt 0.812500 1.000000
vt 0.812500 0.000000
vt 0.781250 1.000000
vt 0.781250 0.000000
vt 0.750000 1.000000
vt 0.750000 0.000000
vt 0.718750 1.000000
vt 0.718750 0.000000
vt 0.687500 1.000000
vt 0.687500 0.000000
vt 0.656250 1.000000
vt 0.656250 0.000000
vt 0.625000 1.000000
vt 0.625000 0.000000
vt 0.593750 1.000000
vt 0.593750 0.000000
vt 0.562500 1.000000
vt 0.562500 0.000000
vt 0.531250 1.000000
vt 0.531250 0.000000
vt 0.500000 1.000000
vt 0.500000 0.000000
vt 0.468750 1.000000
vt 0.468750 0.000000
vt 0.437500 1.000000
vt 0.437500 0.000000
vt 0.406250 1.000000
vt 0.406250 0.000000
vt 0.375000 1.000000
vt 0.375000 0.000000
vt 0.343750 1.000000
vt 0.343750 0.000000
vt 0.312500 1.000000
vt 0.312500 0.000000
vt 0.281250 1.000000
vt 0.281250 0.000000
vt 0.250000 1.000000
vt 0.250000 0.000000
vt 0.218750 1.000000
vt 0.218750 0.000000
vt 0.187500 1.000000
vt 0.187500 0.000000
vt 0.156250 1.000000
vt 0.156250 0.000000
vt 0.125000 1.000000
vt 0.125000 0.000000
vt 0.093750 1.000000
vt 0.093750 0.000000
vt 0.062500 1.000000
vt 0.062500 0.000000
vt 0.031250 1.000000
vt 0.031250 0.000000
s 1
usemtl Material.002
f 1/1/1 2/2/1 4/3/1 3/4/1
usemtl Material
f 9/5/4 46/6/41 8/3/3 7/4/3
f 5/1/2 6/2/2 28/7/23 27/8/22
f 27/8/22 28/7/23 29/9/24 26/10/21
f 26/10/21 29/9/24 30/11/25 25/12/20
f 25/12/20 30/11/25 31/13/26 24/14/19
f 24/14/19 31/13/26 32/15/27 23/16/18
f 23/16/18 32/15/27 33/17/28 22/18/17
f 22/18/17 33/17/28 34/19/29 21/20/16
f 21/20/16 34/19/29 35/21/30 20/22/15
f 20/22/15 35/21/30 36/23/31 19/24/14
f 19/24/14 36/23/31 37/25/32 18/26/13
f 18/26/13 37/25/32 38/27/33 17/28/12
f 17/28/12 38/27/33 39/29/34 16/30/11
f 16/30/11 39/29/34 40/31/35 15/32/10
f 15/32/10 40/31/35 41/33/36 14/34/9
f 14/34/9 41/33/36 42/35/37 13/36/8
f 13/36/8 42/35/37 43/37/38 12/38/7
f 12/38/7 43/37/38 44/39/39 11/40/6
f 11/40/6 44/39/39 45/41/40 10/42/5
f 47/42/42 48/41/43 46/6/41 9/5/4
f 10/42/5 45/41/40 48/41/43 47/42/42
usemtl Material.001
f 49/2/44 50/3/44 52/43/45 51/44/45
f 51/44/45 52/43/45 54/45/46 53/46/46
f 53/46/46 54/45/46 56/47/47 55/48/47
f 55/48/47 56/47/47 58/49/48 57/50/48
f 57/50/48 58/49/48 60/51/49 59/52/49
f 59/52/49 60/51/49 62/53/50 61/54/50
f 61/54/50 62/53/50 64/55/51 63/56/51
f 63/56/51 64/55/51 66/57/52 65/58/52
f 65/58/52 66/57/52 68/59/53 67/60/53
f 67/60/53 68/59/53 70/61/54 69/62/54
f 69/62/54 70/61/54 72/63/55 71/64/55
f 71/64/55 72/63/55 74/65/56 73/66/56
f 73/66/56 74/65/56 76/67/57 75/68/57
f 75/68/57 76/67/57 78/69/58 77/70/58
f 77/70/58 78/69/58 80/71/59 79/72/59
f 79/72/59 80/71/59 82/73/60 81/74/60
f 81/74/60 82/73/60 84/75/61 83/76/61
f 83/76/61 84/75/61 86/77/62 85/78/62
f 85/78/62 86/77/62 88/79/63 87/80/63
f 87/80/63 88/79/63 90/81/64 89/82/64
f 89/82/64 90/81/64 92/83/65 91/84/65
f 91/84/65 92/83/65 94/85/66 93/86/66
f 93/86/66 94/85/66 96/87/67 95/88/67
f 95/88/67 96/87/67 98/89/68 97/90/68
f 97/90/68 98/89/68 100/91/69 99/92/69
f 99/92/69 100/91/69 102/93/70 101/94/70
f 101/94/70 102/93/70 104/95/71 103/96/71
f 103/96/71 104/95/71 106/97/72 105/98/72
f 105/98/72 106/97/72 108/99/73 107/100/73
f 107/100/73 108/99/73 110/101/74 109/102/74
f 109/102/74 110/101/74 112/103/75 111/104/75
f 111/104/75 112/103/75 50/4/44 49/1/44
