{
	"asset":{
		"generator":"Khronos glTF Blender I/O v4.5.48",
		"version":"2.0"
	},
	"scene":0,
	"scenes":[
		{
			"name":"Scene",
			"nodes":[
				0,
				1,
				2
			]
		}
	],
	"nodes":[
		{
			"mesh":0,
			"name":"Cylinder",
			"scale":[
				13.294266700744629,
				13.294266700744629,
				13.294266700744629
			]
		},
		{
			"mesh":1,
			"name":"Cylinder.001",
			"scale":[
				13.294266700744629,
				13.294266700744629,
				13.294266700744629
			]
		},
		{
			"mesh":2,
			"name":"Cylinder.002",
			"scale":[
				13.294266700744629,
				13.294266700744629,
				13.294266700744629
			]
		}
	],
	"meshes":[
		{
			"name":"Cylinder",
			"primitives":[
				{
					"attributes":{
						"POSITION":0,
						"NORMAL":1
					},
					"indices":2
				}
			]
		},
		{
			"name":"Cylinder.001",
			"primitives":[
				{
					"attributes":{
						"POSITION":3,
						"NORMAL":4
					},
					"indices":5
				}
			]
		},
		{
			"name":"Cylinder.002",
			"primitives":[
				{
					"attributes":{
						"POSITION":6,
						"NORMAL":7
					},
					"indices":5
				}
			]
		}
	],
	"accessors":[
		{
			"bufferView":0,
			"componentType":5126,
			"count":225,
			"max":[
				0.12240742146968842,
				1.2507727146148682,
				0.12240742146968842
			],
			"min":[
				-0.12240742146968842,
				0.014419198036193848,
				-0.12240742146968842
			],
			"type":"VEC3"
		},
		{
			"bufferView":1,
			"componentType":5126,
			"count":225,
			"type":"VEC3"
		},
		{
			"bufferView":2,
			"componentType":5123,
			"count":1248,
			"type":"SCALAR"
		},
		{
			"bufferView":3,
			"componentType":5126,
			"count":64,
			"max":[
				0.2474975287914276,
				0.14109236001968384,
				0.24469690024852753
			],
			"min":[
				-0.2474975287914276,
				0.011872649192810059,
				-0.24469690024852753
			],
			"type":"VEC3"
		},
		{
			"bufferView":4,
			"componentType":5126,
			"count":64,
			"type":"VEC3"
		},
		{
			"bufferView":5,
			"componentType":5123,
			"count":192,
			"type":"SCALAR"
		},
		{
			"bufferView":6,
			"componentType":5126,
			"count":64,
			"max":[
				0.025622934103012085,
				0.6588320732116699,
				0.025622908025979996
			],
			"min":[
				-0.0256228968501091,
				0.010604947805404663,
				-0.025622908025979996
			],
			"type":"VEC3"
		},
		{
			"bufferView":7,
			"componentType":5126,
			"count":64,
			"type":"VEC3"
		}
	],
	"bufferViews":[
		{
			"buffer":0,
			"byteLength":2700,
			"byteOffset":0,
			"target":34962
		},
		{
			"buffer":0,
			"byteLength":2700,
			"byteOffset":2700,
			"target":34962
		},
		{
			"buffer":0,
			"byteLength":2496,
			"byteOffset":5400,
			"target":34963
		},
		{
			"buffer":0,
			"byteLength":768,
			"byteOffset":7896,
			"target":34962
		},
		{
			"buffer":0,
			"byteLength":768,
			"byteOffset":8664,
			"target":34962
		},
		{
			"buffer":0,
			"byteLength":384,
			"byteOffset":9432,
			"target":34963
		},
		{
			"buffer":0,
			"byteLength":768,
			"byteOffset":9816,
			"target":34962
		},
		{
			"buffer":0,
			"byteLength":768,
			"byteOffset":10584,
			"target":34962
		}
	],
	"buffers":[
		{
			"byteLength":11352,
			"uri":"Rocket_flame.bin"
		}
	]
}
